<svg xmlns="http://www.w3.org/2000/svg" viewBox="0 0 1000 1000" enable-background="new 0 0 1000 1000"><path fill="#FC001F" d="M989 487.7l-234.5-434.9c-3.7-6.8-12.9-12.3-20.6-12.3h-467.7c-7.7 0-17 5.5-20.6 12.3l-234.6 434.9c-3.7 6.8-3.7 17.9 0 24.6l234.5 434.8c3.7 6.8 12.9 12.3 20.6 12.3h467.6c7.7 0 17-5.5 20.6-12.3l234.7-434.8c3.6-6.8 3.6-17.8 0-24.6zm-632.9 405l-18.9-9.9-18.9 9.9 3.6-21.1-15.3-14.9 21.1-3.1 9.5-19.2 9.5 19.2 21.1 3.1-15.3 14.9 3.6 21.1zm91.5-280.4c-6 1.9-13 2.8-21 2.8-14.8 0-27.1-3.7-36.8-11-8.1-6-14.6-14.2-19.3-24.5-4.7-10.3-7.5-22.2-8.3-35.5l36-2.6c1.6 14.6 5.5 25.2 11.6 31.8 4.5 5 9.7 7.3 15.6 7 8.3-.3 14.9-4.3 19.8-12.2 2.5-3.9 3.8-9.4 3.8-16.6 0-10.4-4.7-20.8-14.2-31-7.5-7.1-18.7-17.7-33.6-31.8-12.5-12.1-21.4-23-26.6-32.6-5.6-10.8-8.4-22.6-8.4-35.2 0-22.8 7.7-40.1 23-51.9 9.5-7.1 21.2-10.6 35.2-10.6 13.5 0 25 3 34.6 9 7.5 4.7 13.5 11.2 18.1 19.6 4.6 8.4 7.4 18.1 8.3 29l-36.2 6.6c-1.1-10.3-4-18.3-8.8-24-3.5-4.1-8.5-6.2-15-6.2-6.9 0-12.2 3.1-15.8 9.2-2.9 4.9-4.4 11.1-4.4 18.4 0 11.5 4.9 23.1 14.8 35 3.7 4.5 9.3 9.9 16.8 16 8.8 7.3 14.6 12.5 17.4 15.4 9.3 9.3 16.5 18.5 21.6 27.6 2.4 4.3 4.3 8.2 5.8 11.8 3.6 8.9 5.5 16.9 5.6 24 .3 17.5-4.3 32.4-13.6 44.8-6.1 8.3-14.8 14.2-26 17.7zm71.3 280.4l-18.9-9.9-18.9 9.9 3.6-21.1-15.3-14.9 21.1-3.1 9.5-19.2 9.5 19.2 21.1 3.1-15.3 14.9 3.6 21.1zm59.1-277.4c-16.7 0-30.8-5.8-42.5-17.5s-17.5-25.8-17.5-42.3v-136.9c0-16.7 5.9-30.8 17.6-42.5 11.7-11.7 25.9-17.5 42.4-17.5 16.7 0 30.8 5.9 42.4 17.6 11.6 11.7 17.4 25.9 17.4 42.4v28.6h-39.2v-29.4c0-6-2.1-11.1-6.4-15.4-4.3-4.3-9.4-6.4-15.4-6.4s-11.1 2.1-15.3 6.4c-4.2 4.3-6.3 9.4-6.3 15.4v137.2c0 6 2.1 11.1 6.3 15.3 4.2 4.2 9.3 6.3 15.3 6.3s11.1-2.1 15.4-6.3c4.3-4.2 6.4-9.3 6.4-15.3v-34.6h39.2v35c0 16.7-5.9 30.8-17.6 42.4-11.7 11.7-25.8 17.5-42.2 17.5zm103.8 277.4l-18.9-9.9-18.9 9.9 3.6-21.1-15.3-14.9 21.1-3.1 9.4-19.2 9.5 19.2 21.1 3.1-15.3 14.9 3.7 21.1z"/></svg>