<svg version="1.1" id="Layer_1" xmlns="http://www.w3.org/2000/svg" xmlns:xlink="http://www.w3.org/1999/xlink" x="0px" y="0px" viewBox="-226 305 430 186.3" style="enable-background:new -226 305 430 186.3;" xml:space="preserve">
  <g>
    <g>
      <path fill="#F68657" d="M-137.6,489.3l-0.8-0.2c-44.5-12.7-69.9-44.9-69.9-88.5v-54.5l70.7-23l70.7,23v54.6
        c0,43.6-25.5,75.9-69.9,88.5L-137.6,489.3z"></path>
    </g>
  </g>
  <g>
    <g>
      <path fill="#383A3F" d="M-147.3,481.9l-0.8-0.2c-46.4-13.2-72.9-46.8-72.9-92.3v-56.8l73.7-24l73.7,24v56.9
        c0,45.5-26.6,79.1-72.9,92.3L-147.3,481.9z M-215,336.9v52.5c0,22.1,6.4,41,19.1,56.2c11.5,13.8,28.3,24.2,48.6,30.1
        c20.2-5.9,37-16.3,48.6-30.1c12.7-15.2,19.1-34.1,19.1-56.2v-52.5l-67.7-22L-215,336.9z"></path>
    </g>
  </g>
  <line fill="none" x1="-140.3" y1="703" x2="45" y2="703"></line>
  <g>
    <g>
      <path fill="#383A3F" d="M-0.1,352.2c-13.2,0-26.5,7.5-26.5,21.8c0,14.9,13.2,18.6,26,22.2l0.3,0.1c11.3,3.2,22.9,6.5,22.9,18.9
        c0,4-1.6,17.2-22.2,17.2c-12.8,0-20.7-7.3-24.2-11.6l-0.8-0.9l-0.9,0.8l-3.2,2.8l-0.8,0.7l0.7,0.9c6.7,8.5,17.3,13.3,29.2,13.3
        c27.5,0,28.8-19.3,28.8-23.1c0-17.1-14.6-21.3-27.6-25L1.3,390c-11.5-3.3-21.4-6.1-21.4-16c0-9,8.6-15.8,19.9-15.8
        c9.6,0,17.1,3.4,22.3,10.1l0.8,1l0.9-0.9l3-2.8l0.8-0.7L27,364C20.7,356.3,11.3,352.2-0.1,352.2L-0.1,352.2z"></path>
    </g>
    <g>
      <path fill="#383A3F" d="M70,353.6H46h-1.2v1.2v81v1.2H46h24c12.3,0,22.8-4.3,30.4-12.4c7.1-7.6,11-17.9,11-29.2
        c0-11.2-3.9-21.5-11-29.2C92.8,357.9,82.3,353.6,70,353.6L70,353.6z M51.1,359.6h19c10.6,0,19.5,3.6,25.8,10.5
        c5.9,6.4,9.1,15.4,9.1,25.3c0,21.3-14,35.6-34.9,35.6h-19V359.6L51.1,359.6z"></path>
    </g>
    <g>
      <path fill="#383A3F" d="M183.3,353.6h-3.1H175h-0.5l-0.3,0.3l-40.1,36.2l-0.1-35.4l0-1.2h-1.2H129h-1.2v1.2v81v1.2h1.2h3.9h1.2l0-1.2
        l0.1-35.5l43.7,36.4l0.3,0.3h0.4h5.2h3.2l-2.5-2.1l-47.5-39.6l43.9-39.6L183.3,353.6L183.3,353.6z"></path>
    </g>
  </g>
</svg>
